<?xml version="1.0" encoding="UTF-8" standalone="no"?>
<!-- Created with Inkscape (http://www.inkscape.org/) -->

<svg
   width="800"
   height="600"
   viewBox="0 0 800.00003 600.00002"
   version="1.1"
   id="svg1"
   xml:space="preserve"
   inkscape:version="1.3.2 (091e20e, 2023-11-25, custom)"
   sodipodi:docname="weapon_benelli.svg"
   xmlns:inkscape="http://www.inkscape.org/namespaces/inkscape"
   xmlns:sodipodi="http://sodipodi.sourceforge.net/DTD/sodipodi-0.dtd"
   xmlns="http://www.w3.org/2000/svg"
   xmlns:svg="http://www.w3.org/2000/svg"><sodipodi:namedview
     id="namedview1"
     pagecolor="#ffffff"
     bordercolor="#999999"
     borderopacity="1"
     inkscape:showpageshadow="2"
     inkscape:pageopacity="0"
     inkscape:pagecheckerboard="0"
     inkscape:deskcolor="#d1d1d1"
     inkscape:document-units="px"
     showgrid="false"
     inkscape:zoom="1.0243155"
     inkscape:cx="410.51806"
     inkscape:cy="294.34291"
     inkscape:window-width="1920"
     inkscape:window-height="1009"
     inkscape:window-x="1912"
     inkscape:window-y="-8"
     inkscape:window-maximized="1"
     inkscape:current-layer="layer1"><inkscape:grid
       id="grid1"
       units="px"
       originx="0"
       originy="0"
       spacingx="1"
       spacingy="1"
       empcolor="#0099e5"
       empopacity="0.30196078"
       color="#0099e5"
       opacity="0.14901961"
       empspacing="5"
       dotted="false"
       gridanglex="30"
       gridanglez="30"
       visible="false" /></sodipodi:namedview><defs
     id="defs1" /><g
     inkscape:label="Livello 1"
     inkscape:groupmode="layer"
     id="layer1"><path
       style="fill:#000000"
       d="m 27.823459,356.5796 31.240376,-12.93547 c 2.089917,-16.99782 7.741358,-23.31107 13.667664,-28.79972 l 97.138041,-25.38281 -4.88131,-19.0371 -10.25075,2.92878 36.12169,-23.43028 -1.95252,-6.83383 -167.672957,19.28117 z"
       id="path11"
       sodipodi:nodetypes="cccccccccc" /><path
       style="fill:#000000"
       d="m 226.00459,271.64483 11.47108,-8.78636 10.49481,-12.44734 -77.36874,20.5015 3.66098,14.39986 z"
       id="path12" /><path
       d="m 288.72852,223.80859 -30.26368,15.86328 c -9.16894,19.43156 -27.30913,34.52623 -37.29882,46.08594 21.36891,-0.26098 22.11974,2.04328 21.1914,9.56055 -10.27908,19.01758 -27.60041,44.51469 -22.94336,49.79101 42.23155,6.54588 52.55661,14.07894 49.30274,5.85743 -3.59631,-4.15357 -12.06404,-8.20796 -6.83399,-10.00782 l 18.54883,-45.39648 c 2.94018,-3.24282 6.99284,-5.37314 13.17969,-5.36914 10.62708,1.24085 23.04879,-0.0297 31.72851,-2.68359 10.46227,-12.65101 13.27334,-17.3025 22.69727,-16.10938 l 86.39844,1.46484 -0.24219,-48.32421 z m 120.8125,8.54102 c 4.88129,4.88129 4.88129,10.08896 0,15.62109 h -51.00977 c -4.3872,-5.12536 -5.97433,-10.25159 0,-15.37695 z m -92.98829,37.09766 c 10.86947,5.10737 8.46055,14.92151 0,18.79492 l -20.25781,0.24218 c -8.7065,-3.95686 -9.73739,-13.19361 0.24414,-18.79296 z"
       style="display:inline"
       id="path28" /><path
       style="fill:#000000"
       d="m 438.69918,238.50601 0.34517,36.75961 c 50.9334,7.74412 100.07247,-0.0575 146.09387,-0.17259 l -0.34516,-36.34295 z"
       id="path14"
       sodipodi:nodetypes="ccccc" /><path
       style="fill:#000000"
       d="m 589.18922,271.98659 18.29352,0.34516 2.41612,-2.41613 129.43524,-1.03548 3.45161,3.79677 h 22.7806 l 7.24838,-6.55805 0.34516,-13.46127 -5.52257,-4.14193 -25.54189,1.03549 -2.76129,2.41612 -131.16104,-0.34516 -2.07097,-3.79677 -17.60319,0.34516 z"
       id="path15" /><path
       style="fill:#000000"
       d="m 438.69917,227.02942 332.04455,1.12177 -0.17258,17.43061 -182.00735,-0.54011 -0.3661,-9.51855 -149.41223,-0.55503 z"
       id="path16"
       sodipodi:nodetypes="ccccccc" /><path
       d="m 744.33984,211.75608 -4.91992,0.25976 -5.17773,13.46094 26.06054,0.0859 -4.14257,-6.38477 c -3.78514,-6.67063 -7.81291,-6.75242 -11.82032,-7.42187 z m -2.41729,5.69496 8.7165,-0.0867 3.36402,5.17846 -13.97934,3.9e-4 z"
       style="fill:#000000"
       id="path19"
       sodipodi:nodetypes="cccccscccccc" /><path
       style="fill:#000000"
       d="m 291.41413,221.36735 39.78266,0.48813 -2.19659,-5.61351 -12.93546,0.24407 c -6.68612,-2.84593 -8.74627,-5.54429 -12.93547,-8.29823 -7.37754,2.69618 -10.11026,7.91774 -11.71514,13.17954 z"
       id="path20"
       sodipodi:nodetypes="cccccc" /><path
       style="fill:#000000"
       d="m 334.61371,221.61141 h 99.09056 v -4.63724 h -3.66098 l 0.0283,2.71433 -3.75509,-0.0369 0.0432,-2.32984 h -3.40846 l -0.0432,2.28669 -3.79677,0.0431 -0.0431,-2.41613 h -3.58104 l 0.0431,2.32984 h -3.79676 v -2.28669 l -3.71048,-0.0431 0.0431,2.28669 -3.62418,0.0432 0.0431,-2.28669 h -3.9262 v 2.37298 l -3.49475,-0.0431 -0.0863,-2.37298 h -3.40846 l -0.12944,2.37298 -3.66733,0.0863 -0.0431,-2.50241 h -3.88305 v 2.45927 l -3.40846,-0.0431 -0.0431,-2.32983 h -3.71048 v 2.32983 l -3.53789,-0.12943 -0.0863,-2.11411 -3.79677,-0.0432 0.0431,2.24355 h -3.4516 l -0.0432,-2.2004 -4.05563,-0.0432 -0.0431,2.24355 -3.40846,-0.0432 -0.0863,-2.2004 h -3.66733 l 0.0431,2.24355 h -3.53789 v -2.24355 l -3.75363,0.0432 v 2.2004 l -3.58104,-0.0432 v -2.2004 l -3.88306,-0.0431 0.0432,2.32983 -3.45161,-0.0431 -0.0431,-2.24355 -3.96935,-0.0431 z"
       id="path21"
       sodipodi:nodetypes="ccccccccccccccccccccccccccccccccccccccccccccccccccccccccc" /><path
       style="fill:#000000"
       d="m 303.05105,270.08821 c -4.61788,3.05695 -7.85749,9.71771 -2.76129,17.60319 -1.57238,-1.16503 -5.17051,0.61629 -6.73063,-11.3903 l -2.07096,-1.03549 5.52257,-4.83224 z"
       id="path24"
       sodipodi:nodetypes="cccccc" /></g></svg>
