<?xml version="1.0" encoding="UTF-8" standalone="no"?>
<!-- Created with Inkscape (http://www.inkscape.org/) -->

<svg
   width="800"
   height="600"
   viewBox="0 0 211.66666 158.75"
   version="1.1"
   id="svg1"
   xml:space="preserve"
   inkscape:version="1.3.2 (091e20e, 2023-11-25, custom)"
   sodipodi:docname="weapon_victrixi.svg"
   xmlns:inkscape="http://www.inkscape.org/namespaces/inkscape"
   xmlns:sodipodi="http://sodipodi.sourceforge.net/DTD/sodipodi-0.dtd"
   xmlns="http://www.w3.org/2000/svg"
   xmlns:svg="http://www.w3.org/2000/svg"><sodipodi:namedview
     id="namedview1"
     pagecolor="#ffffff"
     bordercolor="#999999"
     borderopacity="1"
     inkscape:showpageshadow="2"
     inkscape:pageopacity="0"
     inkscape:pagecheckerboard="0"
     inkscape:deskcolor="#d1d1d1"
     inkscape:document-units="px"
     inkscape:zoom="1.0242632"
     inkscape:cx="480.83344"
     inkscape:cy="305.09736"
     inkscape:window-width="1920"
     inkscape:window-height="1009"
     inkscape:window-x="1912"
     inkscape:window-y="-8"
     inkscape:window-maximized="1"
     inkscape:current-layer="layer1" /><defs
     id="defs1"><inkscape:path-effect
       effect="fillet_chamfer"
       id="path-effect3"
       is_visible="true"
       lpeversion="1"
       nodesatellites_param="F,0,0,1,0,0,0,1 @ F,0,0,1,0,0.51671302,0,1 @ F,0,0,1,0,0,0,1 @ F,0,0,1,0,0,0,1 @ F,0,0,1,0,0,0,1 @ F,0,0,1,0,0,0,1 @ F,0,0,1,0,0,0,1 @ F,0,0,1,0,0,0,1 @ F,0,0,1,0,0,0,1 @ F,0,0,1,0,0,0,1 @ F,0,0,1,0,0,0,1 @ F,0,0,1,0,0,0,1"
       radius="0"
       unit="px"
       method="auto"
       mode="F"
       chamfer_steps="1"
       flexible="false"
       use_knot_distance="true"
       apply_no_radius="true"
       apply_with_radius="true"
       only_selected="false"
       hide_knots="false" /></defs><g
     inkscape:label="Livello 1"
     inkscape:groupmode="layer"
     id="layer1"><path
       d="M 3.9739176,70.907815 4.133081,91.823334 8.6614867,91.777859 8.7446857,88.717064 11.540897,87.766218 11.502657,74.881733 8.6315143,74.166531 8.5400471,70.907815 Z"
       style="stroke-width:0.264583"
       id="path25" /><path
       d="m 46.303633,67.400536 -26.119852,0.09095 0.03101,0.966866 c 1.98743,-0.0611 0.429766,2.003149 2.79983,2.503723 l 21.279837,-0.09147 c 0.59679,-0.989232 0.910387,-2.450212 1.97249,-2.66392 z"
       style="stroke-width:0.264583"
       id="path20" /><path
       d="m 32.16031,74.201154 -17.436144,0.129192 0.129191,22.150585 c 2.671256,4.161669 4.498997,3.053551 6.522082,3.164148 v -3.357935 l 14.271997,-0.322977 c 4.106383,-6.471938 3.984671,-11.728931 10.784871,-12.915491 l 26.348262,-0.322977 v -7.254855 h -2.359546 c -1.068843,0.919043 -2.170708,0.949662 -3.581693,1.184424 H 36.357987 Z"
       style="stroke-width:0.264583"
       id="path31" /><path
       d="m 67.872342,83.629519 -6.554639,0.03256 c -0.812641,0.651146 -1.034767,1.892908 -1.259354,3.132108 -1.976752,1.589948 -2.774677,3.946135 -3.034957,6.65179 -0.550708,1.124048 -2.263727,4.142063 -2.260327,6.715866 l 8.459948,0.19379 c 1.048833,-0.751207 0.774326,-1.980568 0.839226,-3.551721 0.894504,-0.892178 1.257854,-2.056961 1.291394,-3.810103 1.078019,-0.814439 1.284315,-1.87829 1.162719,-3.035474 0.258734,-1.008389 0.766213,-1.519372 2.131136,-1.614372 v -0.710551 l -0.775146,-0.839225 z"
       style="stroke-width:0.264583"
       id="path36" /><path
       d="m 67.872342,83.629519 v 3.164665 l 0.775146,0.839225 v 0.710551 c -1.364923,0.095 -1.872402,0.605983 -2.131136,1.614372 0.121596,1.157184 -0.0847,2.221035 -1.162719,3.035474 -0.03354,1.753142 -0.39689,2.917925 -1.291394,3.810103 -0.0649,1.571153 0.209607,2.800514 -0.839226,3.551721 l -8.459948,-0.19379 c -0.0034,-2.573803 1.709619,-5.591818 2.260327,-6.715866 0.26028,-2.705655 1.058205,-5.061842 3.034957,-6.65179 0.224587,-1.2392 0.446713,-2.480962 1.259354,-3.132108 z"
       style="stroke-width:0.264583"
       id="path35" /><path
       d="m 104.5254,71.327428 -7.096206,0.0072 c 0.212304,0.610682 0.654707,1.33185 0.05684,2.058272 l -16.249654,0.03514 c -0.443243,-0.665607 -0.182505,-1.33117 -0.04599,-1.996777 l -7.351489,-0.0124 c -2.772479,0.291836 -3.878059,0.743356 -4.33772,1.643828 -0.249251,0.487083 -0.533699,0.974326 0.04547,1.461409 h 3.424597 l 1.369943,0.04548 c 0.365284,1.172047 0.353376,2.344018 0.502294,3.516065 -1.068918,2.176659 -1.051777,4.353692 -1.187007,6.53035 1.019833,0.896914 2.039412,1.019629 3.059245,0.09095 0.01004,-2.227375 0.07598,-4.465597 -0.502295,-6.575309 0.19263,-1.243425 0.245347,-2.766624 0.77618,-3.333647 h 25.481135 l 2.10013,-1.917712 z"
       style="stroke-width:0.264583"
       id="path27" /><path
       d="m 81.433788,85.115217 0.193786,13.884423 c -0.810267,0.08114 -1.082144,0.565704 -0.516247,1.67897 l 17.242358,-1.291396 c 0.567054,-0.58121 0.740154,-1.162871 -0.0646,-1.74408 V 85.115217 Z"
       style="stroke-width:0.264583"
       id="path38" /><path
       d="m 77.989037,83.232644 c -0.149475,-0.0358 -0.339523,-0.02048 -0.588078,0.05891 l -0.04599,1.78077 c -1.567802,1.01008 -2.90686,1.259666 -4.474662,-0.273885 l -0.09147,-1.324467 c -1.292955,0.15041 -2.922116,-0.01915 -2.602942,0.822172 l 0.04547,2.55695 c 0.04229,1.044544 0.229353,1.992771 2.049487,1.852083 l 6.078699,-0.06459 0.776697,-1.467611 -0.411345,-2.602942 C 78.52063,83.905884 78.437461,83.340047 77.989037,83.232644 Z m -5.951058,0.978235 0.387056,1.000973 0.516765,0.355017 c -0.441732,0.741256 0.07244,1.602359 0.258382,2.422074 -1.047717,-0.787685 -1.317548,-2.131049 -1.162203,-3.778064 z m 9.395809,0.904338 h 16.855301 v 12.527917 c 0.80475,0.581209 0.63165,1.16287 0.0646,1.74408 l -17.242358,1.291396 c -0.565897,-1.113266 -0.29402,-1.597829 0.516247,-1.67897 z m -69.163736,0.451652 h 1.937349 v 1.485697 h -1.937349 z"
       style="stroke-width:0.264583"
       id="path34" /><path
       d="m 115.16506,72.605903 -8.95036,0.04599 -3.37912,3.150712 -25.069269,-0.09147 -0.04599,6.986653 c 1.22047,-0.04551 1.514387,0.520537 1.46141,1.324467 h 21.051431 v -3.607531 h 5.20536 l 1.32447,-1.233 h 8.40207 z"
       style="stroke-width:0.264583"
       id="path30" /><path
       d="m 105.7801,68.647488 v 3.357935 h 10.3973 v 4.779036 l 17.43666,0.0646 3.09956,3.616316 h 9.04131 l 1.03301,-0.968933 v -1.872754 h 31.44976 l 2.06654,-2.001944 v -3.810104 l -3.68092,-3.164148 z"
       style="stroke-width:0.264583"
       id="path22" /><path
       d="m 105.7801,68.647488 h 70.84322 l 3.68092,3.164148 v 3.810104 l -2.06654,2.001944 h -31.44976 v 1.872754 l -1.03301,0.968933 h -9.04131 l -3.09956,-3.616316 -17.43666,-0.0646 v -4.779036 h -10.3973 z"
       style="stroke-width:0.264583"
       id="path21" /><path
       d="m 208.00022,71.14501 -15.79955,0.182418 0.0455,0.548287 h -10.95902 l -5.1e-4,3.470072 h 10.86858 v 0.68523 l 15.84503,0.09147 z"
       style="stroke-width:0.264583"
       id="path26" /><path
       d="m 75.815526,68.661958 -1.48518,1.549776 h 30.029174 v -1.549776 z"
       style="stroke-width:0.264583"
       id="path24" /><path
       d="m 75.815526,68.661958 h 28.543994 v 1.549776 H 74.330346 Z"
       style="stroke-width:0.264583"
       id="path23" /><path
       d="m 24.410913,71.682445 0.0036,1.808158 1.431954,0.02326 -0.02274,-1.831413 z"
       style="stroke-width:0.264583"
       id="path28" /><path
       d="m 30.610534,71.747041 v 1.678967 h 1.291394 v -1.678967 z"
       style="stroke-width:0.264583"
       id="path29" /><path
       d="m 12.205456,75.427953 -0.01912,1.485697 h 1.827279 v -1.485697 z"
       style="stroke-width:0.264583"
       id="path32" /><path
       d="m 12.270052,85.566869 v 1.485697 h 1.937349 v -1.485697 z"
       style="stroke-width:0.264583"
       id="path39" /><path
       d="m 32.870861,96.9331 -9.687264,0.193786 c -0.836398,1.552739 -0.425689,2.523362 0,3.487124 h 9.816455 c 0.446706,-1.14537 0.93292,-2.284069 -0.129191,-3.68091 z"
       style="stroke-width:0.264583"
       id="path41" /><path
       d="m 32.870861,96.9331 c 1.062111,1.396841 0.575897,2.53554 0.129191,3.68091 h -9.816455 c -0.425689,-0.963762 -0.836398,-1.934385 0,-3.487124 z"
       style="stroke-width:0.264583"
       id="path40" /><path
       id="path42"
       style="fill:#000000;stroke:none;stroke-width:0.264583"
       d="m 116.20984,77.817471 0.0323,1.93735 -9.17011,0 -1.4857,1.29191 h -4.26176 l 0.12919,6.84506 4.13257,3.10007 h 21.44055 l 5.94124,-7.039364 v -6.135026 z m -8.04022,3.22926 h 19.63188 c 1.86524,0.405507 1.39798,1.394292 1.4211,2.260327 l -3.61632,4.261756 h -19.89077 l -1.03301,-0.580843 v -3.810104 z"
       sodipodi:nodetypes="ccccccccccccccccccc" /></g></svg>
