<?xml version="1.0" encoding="UTF-8" standalone="no"?>
<!-- Created with Inkscape (http://www.inkscape.org/) -->

<svg
   width="800"
   height="600"
   viewBox="0 0 211.66666 158.75"
   version="1.1"
   id="svg1"
   xml:space="preserve"
   inkscape:version="1.3.2 (091e20e, 2023-11-25, custom)"
   sodipodi:docname="weapon_ak.svg"
   xmlns:inkscape="http://www.inkscape.org/namespaces/inkscape"
   xmlns:sodipodi="http://sodipodi.sourceforge.net/DTD/sodipodi-0.dtd"
   xmlns="http://www.w3.org/2000/svg"
   xmlns:svg="http://www.w3.org/2000/svg"><sodipodi:namedview
     id="namedview1"
     pagecolor="#ffffff"
     bordercolor="#999999"
     borderopacity="1"
     inkscape:showpageshadow="2"
     inkscape:pageopacity="0"
     inkscape:pagecheckerboard="false"
     inkscape:deskcolor="#d1d1d1"
     inkscape:document-units="px"
     inkscape:clip-to-page="false"
     showguides="true"
     showgrid="true"
     inkscape:zoom="1.0242632"
     inkscape:cx="336.33933"
     inkscape:cy="318.76572"
     inkscape:window-width="1920"
     inkscape:window-height="1009"
     inkscape:window-x="1912"
     inkscape:window-y="-8"
     inkscape:window-maximized="1"
     inkscape:current-layer="layer1" /><defs
     id="defs1" /><g
     inkscape:label="Livello 1"
     inkscape:groupmode="layer"
     id="layer1"><g
       id="g9"
       style="fill:#000000"><path
         style="fill:#000000;stroke:#000000;stroke-width:0.264583"
         d="m 12.78663,95.964305 -4.1330522,-21.95684 32.8061012,-4.778841 5.166315,1.033263 14.853157,-2.583159 2.195684,9.557682 z"
         id="path1"
         sodipodi:nodetypes="ccccccc" /><path
         style="fill:#000000;stroke:#000000;stroke-width:0.264583"
         d="m 59.541782,96.86841 4.637761,3.78929 5.307395,-1.076975 3.616423,-12.14084 4.003892,-4.26221 0.516633,-6.328738 10.461789,-0.129156 v 7.491156 l 5.424631,0.129158 0.258314,-8.266103 14.20737,-0.387475 -1.03327,-9.041051 -20.148624,0.129159 -5.295474,-5.166317 -12.657471,0.258315 -5.037159,3.874738 2.324842,11.624209 z"
         id="path2"
         sodipodi:nodetypes="cccccccccccccccccc" /><path
         style="fill:#000000;stroke:#000000;stroke-width:0.264583"
         d="m 82.402727,60.575046 5.037158,5.037156 20.536105,-0.258315 1.42073,10.332632 9.816,-2e-6 3.74558,2.195683 7.10368,-1.679052 23.24842,-2.324841 -0.12916,-13.561577 z"
         id="path3"
         sodipodi:nodetypes="cccccccccc" /><path
         style="fill:#000000;stroke:#000000;stroke-width:0.264583"
         d="m 108.75094,76.978096 c 2.07267,13.684585 9.4742,21.65284 18.34041,28.543894 l -7.74946,12.14083 C 98.388033,103.13202 95.896614,92.86278 94.672727,77.36557 Z"
         id="path4"
         sodipodi:nodetypes="ccccc" /><path
         id="path5"
         style="fill:#000000;stroke:#000000;stroke-width:0.264583"
         d="m 198.38634,57.991808 -2.84117,0.129191 -5.42499,10.332703 H 178.2377 l -8.26617,-6.587195 -15.3696,0.129191 v 11.753288 h 44.17198 z m -30.02913,6.91014 3.09989,2.389567 -14.20727,-1.6e-5 v -2.389518 z"
         sodipodi:nodetypes="cccccccccccccc" /><path
         style="fill:#000000;stroke:#000000;stroke-width:0.264583"
         d="m 199.54892,68.195361 0.0646,3.777866 3.74558,-0.06458 1.80822,-3.745578 z"
         id="path6"
         sodipodi:nodetypes="ccccc" /><path
         style="fill:#000000;stroke:#000000;stroke-width:0.264583"
         d="m 77.629151,82.058579 c 0.311379,3.072206 6.415685,2.121972 9.954797,1.963559 l 0.136988,0.776293 c -3.361427,0.460029 -7.365834,0.447338 -10.000461,-0.273985 z"
         id="path7"
         sodipodi:nodetypes="ccccc" /><path
         style="fill:#000000;stroke:#000000;stroke-width:0.264583"
         d="m 82.079833,77.623886 c -0.921493,2.141991 0.400154,4.129355 3.035209,4.714261 -2.321429,1.193001 -3.939444,0.07162 -6.264156,-4.778841 l 1.866488,1.348283 z"
         id="path8"
         sodipodi:nodetypes="ccccc" /></g></g></svg>
