<?xml version="1.0" encoding="UTF-8" standalone="no"?>
<!-- Created with Inkscape (http://www.inkscape.org/) -->

<svg
   width="800"
   height="600"
   viewBox="0 0 211.66666 158.75"
   version="1.1"
   id="svg1"
   xml:space="preserve"
   inkscape:version="1.3.2 (091e20e, 2023-11-25, custom)"
   sodipodi:docname="weapon_mossberg.svg"
   xmlns:inkscape="http://www.inkscape.org/namespaces/inkscape"
   xmlns:sodipodi="http://sodipodi.sourceforge.net/DTD/sodipodi-0.dtd"
   xmlns="http://www.w3.org/2000/svg"
   xmlns:svg="http://www.w3.org/2000/svg"><sodipodi:namedview
     id="namedview1"
     pagecolor="#ffffff"
     bordercolor="#999999"
     borderopacity="1"
     inkscape:showpageshadow="2"
     inkscape:pageopacity="0"
     inkscape:pagecheckerboard="0"
     inkscape:deskcolor="#d1d1d1"
     inkscape:document-units="px"
     inkscape:zoom="1.0242632"
     inkscape:cx="481.80974"
     inkscape:cy="328.52883"
     inkscape:window-width="1920"
     inkscape:window-height="1009"
     inkscape:window-x="1912"
     inkscape:window-y="-8"
     inkscape:window-maximized="1"
     inkscape:current-layer="layer1" /><defs
     id="defs1" /><g
     inkscape:label="Livello 1"
     inkscape:groupmode="layer"
     id="layer1"><path
       style="fill:#000000;stroke-width:0.264583;stroke:none"
       d="m 10.92617,100.46125 40.995298,-16.508629 1.614474,1.227 7.87863,1.743631 C 63.089046,81.494806 65.486435,76.66879 72.263833,75.492781 l -2.454,-8.459843 c -3.737115,1.915843 -5.750212,3.831685 -11.62421,5.747528 -1.358031,-0.386537 -2.538221,-0.861995 -3.55184,-1.420739 L 9.1702095,74.717832 c 0.9983535,8.219735 2.0923135,16.355814 1.7559605,25.743418 z"
       id="path1"
       sodipodi:nodetypes="cccccccccc" /><path
       d="m 108.95459,64.021414 -28.311452,0.09095 c -3.455866,1.406461 -6.498764,2.642205 -9.224243,2.831351 l 2.648417,8.675956 2.146123,0.04599 c 1.5894,2.034804 0.20809,3.448447 2.739884,5.342827 l 6.621301,-0.04599 c 2.737473,-1.838663 1.044115,-3.548441 3.790466,-5.342827 l 19.589504,-0.04547 z m -3.88142,1.872237 c 0.57587,1.182476 0.47313,2.622809 -0.0455,3.926892 l -12.374959,0.04548 c -1.397238,-1.697768 -1.208977,-2.864641 -0.182935,-3.835425 z m -19.863902,9.635071 c 1.785128,1.598245 1.799038,3.196294 0.04599,4.794539 h -5.845121 c -1.803863,-1.639742 -2.104392,-3.230979 -0.136943,-4.749064 z"
       style="fill:#000000;stroke-width:0.264583"
       id="path11" /><path
       style="fill:#000000;stroke:none;stroke-width:0.264583"
       d="m 72.423432,66.304426 c 1.992138,-0.391925 3.713819,-0.964156 5.34271,-1.598246 l -0.136993,-0.410978 -3.105164,0.410977 -2.191882,1.141606 z"
       id="path3"
       sodipodi:nodetypes="cccccc" /><path
       style="fill:#000000;stroke:none;stroke-width:0.264583"
       d="m 78.999076,76.53321 0.365314,-0.182657 0.502305,-0.136994 c -1.014088,1.524509 -0.642114,2.656839 0.273988,3.698801 -1.133765,-0.759848 -2.033276,-1.547013 -1.141607,-3.37915 z"
       id="path5"
       sodipodi:nodetypes="ccccc" /><path
       style="fill:#000000;stroke:none;stroke-width:0.264583"
       d="m 129.35162,70.326465 -0.0646,6.522474 36.59219,-0.330732 1.88578,-1.189169 0.0111,-5.131732 -1.77822,-1.4664 -30.76957,0.2394 c -0.2346,1.745264 -3.87967,0.932686 -5.87666,1.356159 z"
       id="path7"
       sodipodi:nodetypes="cccccccc" /><path
       style="fill:#000000;stroke:none;stroke-width:0.264583"
       d="m 109.86808,64.021218 0.0913,4.109778 h 65.48247 l -0.0913,-3.379153 z"
       id="path8" /><path
       id="path15"
       style="fill:#000000;stroke-width:0.264583"
       d="M 175.97737 64.769172 L 176.04197 68.088349 L 177.83152 68.10747 L 177.85012 70.003478 L 169.00312 70.003478 L 169.00312 74.524132 L 177.72093 74.524132 L 177.78553 75.105492 L 179.14203 77.559089 L 179.98126 77.559089 L 179.98126 76.590673 L 181.9832 76.655268 L 181.9832 74.911705 L 182.56456 74.330346 L 195.48057 74.26575 L 196.19061 75.040896 L 201.93806 75.040896 L 202.97159 74.26575 L 204.31983 74.220275 L 204.30122 70.299584 L 202.97159 70.26186 L 202.02953 69.430386 L 199.67825 69.422118 L 199.63226 68.327611 L 204.7229 68.373603 C 205.10082 67.049022 205.2518 66.036945 204.77975 64.833768 L 175.97737 64.769172 z M 195.31934 68.458353 L 195.36327 69.689285 L 183.96293 69.651045 L 183.95673 68.490909 L 195.31934 68.458353 z " /><path
       style="fill:#000000;stroke:none;stroke-width:0.264583"
       d="m 109.91336,75.234466 v -6.457895 l 17.63004,-10e-7 v 6.522474 z"
       id="path10"
       sodipodi:nodetypes="ccccc" /></g></svg>
