<?xml version="1.0" encoding="UTF-8" standalone="no"?>
<!-- Created with Inkscape (http://www.inkscape.org/) -->

<svg
   width="800"
   height="600"
   viewBox="0 0 211.66665 158.75"
   version="1.1"
   id="svg1"
   xml:space="preserve"
   inkscape:version="1.3.2 (091e20e, 2023-11-25, custom)"
   sodipodi:docname="weapon_ar.svg"
   xmlns:inkscape="http://www.inkscape.org/namespaces/inkscape"
   xmlns:sodipodi="http://sodipodi.sourceforge.net/DTD/sodipodi-0.dtd"
   xmlns="http://www.w3.org/2000/svg"
   xmlns:svg="http://www.w3.org/2000/svg"><sodipodi:namedview
     id="namedview1"
     pagecolor="#ffffff"
     bordercolor="#999999"
     borderopacity="1"
     inkscape:showpageshadow="2"
     inkscape:pageopacity="0"
     inkscape:pagecheckerboard="false"
     inkscape:deskcolor="#d1d1d1"
     inkscape:document-units="px"
     showgrid="false"
     inkscape:zoom="1.4485269"
     inkscape:cx="408.34588"
     inkscape:cy="312.38632"
     inkscape:window-width="1920"
     inkscape:window-height="1009"
     inkscape:window-x="1912"
     inkscape:window-y="-8"
     inkscape:window-maximized="1"
     inkscape:current-layer="layer1"><inkscape:grid
       id="grid1"
       units="px"
       originx="0"
       originy="0"
       spacingx="0.26458331"
       spacingy="0.26458333"
       empcolor="#0099e5"
       empopacity="0.30196078"
       color="#0099e5"
       opacity="0.14901961"
       empspacing="3"
       dotted="false"
       gridanglex="30"
       gridanglez="30"
       visible="false" /></sodipodi:namedview><defs
     id="defs1" /><g
     inkscape:label="Livello 1"
     inkscape:groupmode="layer"
     id="layer1"><g
       id="g10"
       style="fill:#000000"><path
         style="fill:#000000;stroke:#000000;stroke-width:0.264583"
         d="m 17.169741,90.780439 -2.922509,-25.571956 35.983393,0.182657 2.191883,1.369927 17.717711,2e-6 -1.004613,4.79474 -18.174353,0.04566 -14.795203,7.48893 -9.315497,0.547971 -7.306273,11.324722 z"
         id="path1"
         sodipodi:nodetypes="ccccccccccc" /><path
         style="fill:#000000;stroke:#000000;stroke-width:0.264583"
         d="m 69.774905,75.71125 2.191882,-12.694647 h 38.997233 l -0.0913,11.598706 -2.5572,2.100553 0.27399,4.657751 -15.343174,4.201107 c 0.666437,-1.886628 0.476004,-3.55904 0.182657,-5.205722 l -7.854243,0.09133 c -1.611257,2.091224 -1.078798,3.569957 -1.095941,5.20572 l -3.56181,1.18727 -5.388374,14.155902 -8.767529,-2.922507 6.027676,-13.24262 c 1.599756,-6.414652 -0.5432,-7.985797 -3.013867,-9.132843 z"
         id="path2"
         sodipodi:nodetypes="ccccccccccccccc" /><path
         style="fill:#000000;stroke:#000000;stroke-width:0.264583"
         d="m 112.24262,62.651288 44.93358,-0.09133 c 2.19436,3.753948 2.6099,7.601517 0.18265,11.598708 l -45.11623,-0.182655 z"
         id="path3"
         sodipodi:nodetypes="ccccc" /><path
         id="path4"
         style="fill:#000000;stroke:#000000;stroke-width:0.264583"
         d="M 165.94387 55.527875 L 159.36804 63.747011 C 160.79227 66.303606 160.89665 68.740487 159.64193 71.053541 L 168.68375 70.962074 L 168.59229 55.527875 L 165.94387 55.527875 z M 165.77437 57.862616 L 167.45334 57.862616 L 167.32415 66.322564 L 162.86809 66.322564 L 162.93268 61.931101 L 165.77437 57.862616 z " /><path
         style="fill:#000000;stroke:#000000;stroke-width:0.264583"
         d="m 82.469552,53.883761 0.09133,8.219556 6.666976,0.182658 -0.456645,-1.735241 -3.287821,-0.273984 -0.54797,-6.210331 z"
         id="path5" /><path
         style="fill:#000000;stroke:#000000;stroke-width:0.264583"
         d="m 169.77951,66.304425 h 28.85978 l 0.0913,4.383765 -28.85978,0.09133 z"
         id="path6"
         sodipodi:nodetypes="ccccc" /><path
         style="fill:#000000;stroke:#000000;stroke-width:0.264583"
         d="m 94.890217,86.396675 0.09133,7.032288 3.927119,15.617157 12.694654,-4.01845 -3.37916,-15.069188 v -7.488928 z"
         id="path7"
         sodipodi:nodetypes="ccccccc" /><path
         style="fill:#000000;stroke:#000000;stroke-width:0.264583"
         d="m 85.02675,85.003916 c 2.546664,1.429763 5.310497,0.757966 7.854242,-0.0685 l 0.04566,0.776292 c -2.50663,1.11815 -5.370963,1.305604 -8.059731,0.114159 z"
         id="path8"
         sodipodi:nodetypes="ccccc" /><path
         style="fill:#000000;stroke:#000000;stroke-width:0.264583"
         d="m 87.720936,81.008298 c -0.476111,1.40642 1.503111,2.98086 2.580027,3.927123 -2.300163,-0.02704 -4.092185,-2.293789 -4.223939,-3.99562 z"
         id="path9"
         sodipodi:nodetypes="cccc" /></g></g></svg>
