<?xml version="1.0" encoding="UTF-8" standalone="no"?>
<!-- Created with Inkscape (http://www.inkscape.org/) -->

<svg
   width="800"
   height="600"
   viewBox="0 0 211.66666 158.75"
   version="1.1"
   id="svg1"
   xml:space="preserve"
   inkscape:version="1.3.2 (091e20e, 2023-11-25, custom)"
   sodipodi:docname="weapon_barret.svg"
   xmlns:inkscape="http://www.inkscape.org/namespaces/inkscape"
   xmlns:sodipodi="http://sodipodi.sourceforge.net/DTD/sodipodi-0.dtd"
   xmlns="http://www.w3.org/2000/svg"
   xmlns:svg="http://www.w3.org/2000/svg"><sodipodi:namedview
     id="namedview1"
     pagecolor="#ffffff"
     bordercolor="#999999"
     borderopacity="1"
     inkscape:showpageshadow="2"
     inkscape:pageopacity="0"
     inkscape:pagecheckerboard="0"
     inkscape:deskcolor="#d1d1d1"
     inkscape:document-units="px"
     inkscape:zoom="1.0242632"
     inkscape:cx="367.5813"
     inkscape:cy="239.68449"
     inkscape:window-width="1920"
     inkscape:window-height="1009"
     inkscape:window-x="1912"
     inkscape:window-y="-8"
     inkscape:window-maximized="1"
     inkscape:current-layer="layer1" /><defs
     id="defs1"><inkscape:path-effect
       effect="fillet_chamfer"
       id="path-effect7"
       is_visible="true"
       lpeversion="1"
       nodesatellites_param="F,0,0,1,0,0,0,1 @ F,0,0,1,0,0,0,1 @ F,0,0,1,0,0.53914325,0,1 @ F,0,0,1,0,0.59853265,0,1"
       radius="0"
       unit="px"
       method="auto"
       mode="F"
       chamfer_steps="1"
       flexible="false"
       use_knot_distance="true"
       apply_no_radius="true"
       apply_with_radius="true"
       only_selected="false"
       hide_knots="false" /></defs><g
     inkscape:label="Livello 1"
     inkscape:groupmode="layer"
     id="layer1"><path
       id="path1"
       style="fill:#000000;stroke:none;stroke-width:0.264583"
       d="M 139.23233 74.394941 L 8.9441568 74.660558 L 8.2651285 75.085338 L 5.0684244 75.105492 C 3.893729 75.797302 3.0379817 76.819378 3.6809122 78.26964 C 5.5868308 83.154494 6.3242717 87.320139 4.9671386 91.300369 C 5.7415453 92.710717 6.7459847 92.968736 8.1690103 93.187592 L 9.2991738 93.316783 L 9.6867471 93.962222 L 23.730334 92.049677 L 26.865026 93.70384 C 28.05192 93.721986 28.196412 93.179151 28.285612 92.606232 L 27.252083 90.087523 L 30.454471 82.298851 L 62.840091 82.451813 L 62.900036 80.659158 L 91.185647 80.206989 L 90.198111 81.878205 L 139.36152 81.786738 L 139.23233 74.394941 z M 27.53527 82.469383 L 25.572082 86.990554 L 10.594185 89.182152 L 10.457243 82.515375 L 27.53527 82.469383 z " /><path
       id="path3"
       style="fill:#000000;stroke:none;stroke-width:0.264583"
       d="M 46.690689 83.242463 L 50.307006 86.406611 L 50.242411 88.150174 L 43.493985 98.482876 L 49.661051 100.03265 C 50.525155 99.935996 51.23876 100.10419 50.339045 98.99964 L 52.793159 94.25316 C 54.274324 94.358433 54.645043 94.200193 53.374519 93.187592 C 54.042397 92.404607 54.127479 90.500897 55.634846 90.862669 C 56.461278 91.281278 57.214925 91.567989 57.941682 91.71223 C 57.11779 91.52159 56.340875 91.06561 55.618826 90.300947 L 55.664818 86.442268 L 62.651472 86.3508 L 62.628218 90.506619 C 61.33163 91.328205 60.097916 91.796391 58.943688 91.815583 C 60.125794 91.827089 61.289984 91.426368 62.641653 90.539692 L 62.706249 83.242463 L 46.690689 83.242463 z " /><path
       style="fill:#000000;stroke:none;stroke-width:0.264583"
       d="m 57.993544,86.465175 c -0.284862,2.065422 0.772841,3.065393 1.758071,4.01845 -0.575136,-1.198028 -1.252241,-2.363421 -0.684963,-4.01845 z"
       id="path5"
       sodipodi:nodetypes="cccc" /><path
       style="fill:#000000;stroke:none;stroke-width:0.264583"
       d="m 63.747234,90.64345 0.13699,-9.406827 25.663287,-0.365313 -2.876846,4.977399 z"
       id="path6"
       sodipodi:nodetypes="ccccc" /><path
       style="fill:#000000;stroke:none;stroke-width:0.264583"
       d="m 65.071495,91.145758 19.909593,-4.292436 0.60986,11.151696 a 0.61829082,0.61829082 127.95784 0 1 -0.49988,0.640788 L 66.38975,102.26542 a 0.52737363,0.52737363 37.66231 0 1 -0.626474,-0.48354 z"
       id="path7"
       inkscape:path-effect="#path-effect7"
       inkscape:original-d="m 65.071495,91.145758 19.909593,-4.292436 0.6393,11.690035 -19.818265,3.835793 z" /><path
       style="fill:#000000;stroke:none;stroke-width:0.264583"
       d="m 140.20088,75.880255 h 57.73357 l 0.98483,-0.500486 8.47599,-0.01614 0.3056,1.23058 0.62687,0.251154 0.0114,1.967363 -0.70645,0.478466 -0.061,0.642208 -0.54305,0.357143 -8.81975,-0.03506 -0.32289,-0.565065 -57.68514,0.322894 z"
       id="path8"
       sodipodi:nodetypes="cccccccccccccc" /><path
       style="fill:#000000;stroke:none;stroke-width:0.264583"
       d="m 52.833486,73.976015 c 28.753231,-0.09133 57.506464,-0.182655 86.259684,-0.273984 l 0,-1.187271 -86.267597,-0.186347 z"
       id="path9" /><path
       style="fill:#000000;stroke:none;stroke-width:0.264583"
       d="m 52.194189,74.021679 v -2.191882 h 7.032287 v -1.141606 h -6.758302 c -0.866843,-0.999947 -1.262462,-0.428318 -1.712408,0.0685 -0.378522,1.095942 -0.511797,2.191883 -0.342486,3.287824 z"
       id="path10"
       sodipodi:nodetypes="cccccccc" /><path
       style="fill:#000000;stroke:none;stroke-width:0.264583"
       d="m 83.656828,56.349631 -0.09133,-4.018451 h 1.598247 l 0.456642,0.41098 11.827031,-0.182658 0.77629,-0.410978 h 1.095941 l -0.04566,4.01845 -1.004613,-0.04566 c -0.915015,-1.190008 -1.932849,-0.734923 -2.968172,0 -1.809026,-1.121742 -2.765085,-0.537549 -3.744465,0 -0.910647,-0.469968 -1.802883,-0.979824 -3.424817,0.09133 -0.903285,-0.293984 -1.397074,-1.406959 -3.196495,0.09133 z"
       id="path11"
       sodipodi:nodetypes="cccccccccccccc" /><path
       style="fill:#000000;stroke:none;stroke-width:0.264583"
       d="m 99.903623,53.729678 -0.03229,0.774948 c 0.658707,0.06757 0.908347,-0.105061 1.056657,0.361502 0.23145,0.728136 -0.40259,12.362652 0.20205,15.662811 0.14843,0.810127 1.22869,1.064051 1.80879,1.056817 l -0.0323,-0.839527 c -0.66052,0.02304 -0.84481,-0.151077 -0.97335,-0.926213 -0.48831,-2.944607 0.37846,-12.454153 -0.14319,-15.100623 -0.18803,-0.953966 -1.08068,-1.109972 -1.886377,-0.989715 z"
       id="path12"
       sodipodi:nodetypes="ccssccsscc" /><path
       style="fill:#000000;stroke:none;stroke-width:0.264583"
       d="m 103.46172,71.945106 0.0134,-1.713557 h 4.15545 l 0.0161,1.697412 z"
       id="path13"
       sodipodi:nodetypes="ccccc" /><path
       style="fill:#000000;stroke:none;stroke-width:0.264583"
       d="m 107.99214,70.697795 0.0323,0.920251 0.7588,4e-6 -0.0161,-0.920249 z"
       id="path14"
       sodipodi:nodetypes="ccccc" /><path
       style="fill:#000000;stroke:none;stroke-width:0.264583"
       d="m 121.23846,82.49239 4.01846,-0.02283 0.0456,3.744466 -0.73063,0.776291 -2.76269,0.02283 -1.52975,-1.575416 -4e-5,-1.32426 0.95895,-0.913284 z"
       id="path15"
       sodipodi:nodetypes="ccccccccc" /><path
       style="fill:#000000;stroke:none;stroke-width:0.264583"
       d="m 96.671126,87.492619 v -4.338097 l 23.014764,-0.547971 v 4.56642 z"
       id="path16" /><path
       style="fill:#000000;stroke:none;stroke-width:0.264583"
       d="m 96.031827,88.542896 -0.09133,-5.297046 -1.826567,-1.095941 0.04566,5.251384 z"
       id="path17" /></g></svg>
