<?xml version="1.0" encoding="UTF-8" standalone="no"?>
<!-- Created with Inkscape (http://www.inkscape.org/) -->

<svg
   width="120"
   height="120"
   viewBox="0 0 120 120"
   version="1.1"
   id="svg1"
   inkscape:version="1.3.2 (091e20e, 2023-11-25, custom)"
   sodipodi:docname="perk_underbarrel.svg"
   xmlns:inkscape="http://www.inkscape.org/namespaces/inkscape"
   xmlns:sodipodi="http://sodipodi.sourceforge.net/DTD/sodipodi-0.dtd"
   xmlns="http://www.w3.org/2000/svg"
   xmlns:svg="http://www.w3.org/2000/svg">
  <sodipodi:namedview
     id="namedview1"
     pagecolor="#ffffff"
     bordercolor="#999999"
     borderopacity="1"
     inkscape:showpageshadow="2"
     inkscape:pageopacity="0"
     inkscape:pagecheckerboard="0"
     inkscape:deskcolor="#d1d1d1"
     inkscape:document-units="px"
     showgrid="false"
     inkscape:zoom="6.775"
     inkscape:cx="69.446494"
     inkscape:cy="51.881919"
     inkscape:window-width="1920"
     inkscape:window-height="1009"
     inkscape:window-x="1912"
     inkscape:window-y="-8"
     inkscape:window-maximized="1"
     inkscape:current-layer="layer1">
    <inkscape:grid
       id="grid1"
       units="px"
       originx="0"
       originy="0"
       spacingx="1"
       spacingy="1"
       empcolor="#0099e5"
       empopacity="0.30196078"
       color="#0099e5"
       opacity="0.14901961"
       empspacing="5"
       dotted="false"
       gridanglex="30"
       gridanglez="30"
       visible="false" />
  </sodipodi:namedview>
  <defs
     id="defs1" />
  <g
     inkscape:label="Livello 1"
     inkscape:groupmode="layer"
     id="layer1"
     transform="matrix(1.2432991,0,0,1.2432991,-15.0148,-19.279024)">
    <path
       id="path1"
       style="fill:#000000"
       d="m 15,45 v 20 c 6.666667,0 14.882204,-3.54791 20,0 -5.445662,7.344489 -11,25 -10,25 h 15 c 2,0 4.136235,-17.036477 10,-25 h 50 V 55 H 90 V 45 Z m 46,2 h 20 c 1.999998,1.999998 1.999998,4.000002 0,6 H 61 c -1.999998,-1.999998 -1.999998,-4.000002 0,-6 z"
       sodipodi:nodetypes="cccccccccccccccc" />
    <path
       style="fill:#000000"
       d="m 91,46 v 8 h 15 v -8"
       id="path2"
       sodipodi:nodetypes="cccc" />
    <path
       style="fill:#000000"
       d="m 46,72 c 4.496762,1.244433 9.139482,1.419827 14,0 3.07907,-2.20506 4.010089,-4.605204 5,-7 h 1.278832 c -1.169259,2.763788 -3.144194,5.419744 -5.684736,8 C 55.303292,74.478893 50.123965,74.180713 45,73 Z"
       id="path3"
       sodipodi:nodetypes="ccccccc" />
    <path
       style="fill:#000000"
       d="m 51,66 2,4 c 0.54523,0.984477 1.833469,1.449711 3,2 -1.329231,-1.729071 -2.59828,-3.507666 -3,-6 h -2"
       id="path4"
       sodipodi:nodetypes="ccccc" />
    <rect
       style="fill:#000000"
       id="rect4"
       width="1"
       height="2"
       x="15"
       y="43" />
    <rect
       style="fill:#000000"
       id="rect5"
       width="1"
       height="1"
       x="17"
       y="44" />
    <rect
       style="fill:#000000"
       id="rect5-6"
       width="1"
       height="1"
       x="19"
       y="44" />
    <rect
       style="fill:#000000"
       id="rect5-66"
       width="1"
       height="1"
       x="21"
       y="44" />
    <rect
       style="fill:#000000"
       id="rect5-0"
       width="1"
       height="1"
       x="23"
       y="44" />
    <rect
       style="fill:#000000"
       id="rect5-7"
       width="1"
       height="1"
       x="25"
       y="44" />
    <rect
       style="fill:#000000"
       id="rect5-1"
       width="1"
       height="1"
       x="27"
       y="44" />
    <rect
       style="fill:#000000"
       id="rect5-9"
       width="1"
       height="1"
       x="29"
       y="44" />
    <rect
       style="fill:#000000"
       id="rect5-3"
       width="1"
       height="1"
       x="31"
       y="44" />
    <rect
       style="fill:#000000"
       id="rect5-13"
       width="1"
       height="1"
       x="33"
       y="44" />
    <rect
       style="fill:#000000"
       id="rect5-4"
       width="1"
       height="1"
       x="35"
       y="44" />
    <rect
       style="fill:#000000"
       id="rect5-10"
       width="1"
       height="1"
       x="37"
       y="44" />
    <rect
       style="fill:#000000"
       id="rect5-5"
       width="1"
       height="1"
       x="39"
       y="44" />
    <rect
       style="fill:#000000"
       id="rect5-34"
       width="1"
       height="1"
       x="41"
       y="44" />
    <rect
       style="fill:#000000"
       id="rect5-8"
       width="1"
       height="1"
       x="43"
       y="44" />
    <rect
       style="fill:#000000"
       id="rect5-74"
       width="1"
       height="1"
       x="45"
       y="44" />
    <rect
       style="fill:#000000"
       id="rect5-78"
       width="1"
       height="1"
       x="47"
       y="44" />
    <rect
       style="fill:#000000"
       id="rect5-01"
       width="1"
       height="1"
       x="49"
       y="44" />
    <rect
       style="fill:#000000"
       id="rect5-65"
       width="1"
       height="1"
       x="51"
       y="44" />
    <rect
       style="fill:#000000"
       id="rect5-95"
       width="1"
       height="1"
       x="53"
       y="44" />
    <rect
       style="fill:#000000"
       id="rect5-98"
       width="1"
       height="1"
       x="55"
       y="44" />
    <rect
       style="fill:#000000"
       id="rect5-70"
       width="1"
       height="1"
       x="57"
       y="44" />
    <rect
       style="fill:#000000"
       id="rect5-61"
       width="1"
       height="1"
       x="59"
       y="44" />
    <rect
       style="fill:#000000"
       id="rect5-92"
       width="1"
       height="1"
       x="61"
       y="44" />
    <rect
       style="fill:#000000"
       id="rect5-2"
       width="1"
       height="1"
       x="63"
       y="44" />
    <rect
       style="fill:#000000"
       id="rect5-39"
       width="1"
       height="1"
       x="65"
       y="44" />
    <rect
       style="fill:#000000"
       id="rect5-86"
       width="1"
       height="1"
       x="67"
       y="44" />
    <rect
       style="fill:#000000"
       id="rect5-56"
       width="1"
       height="1"
       x="69"
       y="44" />
    <rect
       style="fill:#000000"
       id="rect5-62"
       width="1"
       height="1"
       x="71"
       y="44" />
    <rect
       style="fill:#000000"
       id="rect5-30"
       width="1"
       height="1"
       x="73"
       y="44" />
    <rect
       style="fill:#000000"
       id="rect5-32"
       width="1"
       height="1"
       x="75"
       y="44" />
    <rect
       style="fill:#000000"
       id="rect5-81"
       width="1"
       height="1"
       x="77"
       y="44" />
    <rect
       style="fill:#000000"
       id="rect5-03"
       width="1"
       height="1"
       x="79"
       y="44" />
    <rect
       style="fill:#000000"
       id="rect5-863"
       width="1"
       height="1"
       x="81"
       y="44" />
    <rect
       style="fill:#000000"
       id="rect5-53"
       width="1"
       height="1"
       x="83"
       y="44" />
    <rect
       style="fill:#000000"
       id="rect5-48"
       width="1"
       height="1"
       x="85"
       y="44" />
    <rect
       style="fill:#000000"
       id="rect5-55"
       width="1"
       height="1"
       x="87"
       y="44" />
    <rect
       style="fill:#000000;stroke-width:1.41421"
       id="rect5-17"
       width="1"
       height="2"
       x="89"
       y="43" />
  </g>
</svg>
