<?xml version="1.0" encoding="UTF-8" standalone="no"?>
<!-- Created with Inkscape (http://www.inkscape.org/) -->

<svg
   width="120"
   height="120"
   viewBox="0 0 120 120"
   version="1.1"
   id="svg1"
   inkscape:version="1.3.2 (091e20e, 2023-11-25, custom)"
   sodipodi:docname="perk_di.svg"
   xmlns:inkscape="http://www.inkscape.org/namespaces/inkscape"
   xmlns:sodipodi="http://sodipodi.sourceforge.net/DTD/sodipodi-0.dtd"
   xmlns="http://www.w3.org/2000/svg"
   xmlns:svg="http://www.w3.org/2000/svg">
  <sodipodi:namedview
     id="namedview1"
     pagecolor="#ffffff"
     bordercolor="#999999"
     borderopacity="1"
     inkscape:showpageshadow="2"
     inkscape:pageopacity="0"
     inkscape:pagecheckerboard="0"
     inkscape:deskcolor="#d1d1d1"
     inkscape:document-units="px"
     showgrid="true"
     inkscape:zoom="6.775"
     inkscape:cx="74.317343"
     inkscape:cy="57.785978"
     inkscape:window-width="1920"
     inkscape:window-height="1009"
     inkscape:window-x="1912"
     inkscape:window-y="-8"
     inkscape:window-maximized="1"
     inkscape:current-layer="layer1">
    <inkscape:grid
       id="grid1"
       units="px"
       originx="0"
       originy="0"
       spacingx="1"
       spacingy="1"
       empcolor="#0099e5"
       empopacity="0.30196078"
       color="#0099e5"
       opacity="0.14901961"
       empspacing="5"
       dotted="false"
       gridanglex="30"
       gridanglez="30"
       visible="true" />
  </sodipodi:namedview>
  <defs
     id="defs1" />
  <g
     inkscape:label="Livello 1"
     inkscape:groupmode="layer"
     id="layer1"
     transform="matrix(1.4285714,0,0,1.4285714,-24.999998,-31.428569)">
    <path
       d="m 34,35 v 4 h -4 v 52 h 4 v 4 h 52 v -4 h 4 V 39 h -4 v -4 z m 31,5 a 5,5 0 0 1 5,5 5,5 0 0 1 -5,5 5,5 0 0 1 -5,-5 5,5 0 0 1 5,-5 z m 15,0 a 5,5 0 0 1 5,5 5,5 0 0 1 -5,5 5,5 0 0 1 -5,-5 5,5 0 0 1 5,-5 z M 40,55 H 80 V 85 H 40 Z"
       style="fill:#000000"
       id="path24" />
    <path
       d="m 30,38 v -3 h -5 v 3 z"
       style="fill:#ff0000"
       id="path13" />
    <path
       d="m 33,35 h -3 v 3 h 3 z"
       style="fill:#ff0000"
       id="path12" />
    <path
       d="m 30,30 v 5 h 3 v -5 z"
       style="fill:#ff0000"
       id="path11" />
    <path
       d="m 30,95 v -3 h -5 v 3 z"
       style="fill:#ff0000"
       id="path23" />
    <path
       d="m 33,95 v -3 h -3 v 3 z"
       style="fill:#ff0000"
       id="path22" />
    <path
       d="m 33,95 h -3 v 5 h 3 z"
       style="fill:#ff0000"
       id="path21" />
    <path
       d="m 90,95 h -3 v 5 h 3 z"
       style="fill:#ff0000"
       id="path20" />
    <path
       d="m 90,92 h -3 v 3 h 3 z"
       style="fill:#ff0000"
       id="path19" />
    <path
       d="m 90,92 v 3 h 5 v -3 z"
       style="fill:#ff0000"
       id="path18" />
    <path
       d="m 90,35 v 3 h 5 v -3 z"
       style="fill:#ff0000"
       id="path17" />
    <path
       d="m 87,35 v 3 h 3 v -3 z"
       style="fill:#ff0000"
       id="path16" />
    <path
       d="m 87,35 h 3 v -5 h -3 z"
       style="fill:#ff0000"
       id="path15" />
    <path
       d="M 42,57 V 83 H 78 V 57 Z m 2,2 h 2 v 5 h -2 z m 27,0 h 5 v 5 h -5 z m -24,2 h 22 v 1 H 47 Z m -2,9 H 65 V 80 H 45 Z"
       style="fill:#000000"
       id="path28" />
    <rect
       style="fill:#000000"
       id="rect28"
       width="2"
       height="2"
       x="46"
       y="71" />
    <rect
       style="fill:#000000"
       id="rect28-3"
       width="2"
       height="2"
       x="49"
       y="71" />
    <rect
       style="fill:#000000"
       id="rect28-36"
       width="2"
       height="2"
       x="52"
       y="71" />
    <rect
       style="fill:#000000"
       id="rect28-2"
       width="2"
       height="2"
       x="55"
       y="71" />
    <rect
       style="fill:#000000"
       id="rect28-8"
       width="2"
       height="2"
       x="58"
       y="71" />
    <rect
       style="fill:#000000"
       id="rect28-7"
       width="2"
       height="2"
       x="61"
       y="71" />
    <rect
       style="fill:#000000"
       id="rect28-76"
       width="2"
       height="2"
       x="47"
       y="74" />
    <rect
       style="fill:#000000"
       id="rect28-5"
       width="2"
       height="2"
       x="50"
       y="74" />
    <rect
       style="fill:#000000"
       id="rect28-50"
       width="2"
       height="2"
       x="53"
       y="74" />
    <rect
       style="fill:#000000"
       id="rect28-1"
       width="2"
       height="2"
       x="56"
       y="74" />
    <rect
       style="fill:#000000"
       id="rect28-14"
       width="2"
       height="2"
       x="59"
       y="74" />
    <rect
       style="fill:#000000"
       id="rect28-17"
       width="2"
       height="2"
       x="62"
       y="74" />
    <rect
       style="fill:#000000"
       id="rect29"
       width="18"
       height="2"
       x="46"
       y="77" />
    <circle
       style="fill:#ff0000;fill-opacity:0.497738;stroke-width:5"
       id="path29"
       cx="65"
       cy="45"
       r="5" />
    <circle
       style="fill:#008000;fill-opacity:0.497738;stroke-width:5"
       id="path29-3"
       cx="80"
       cy="45"
       r="5" />
    <rect
       style="fill:#00ffff;fill-opacity:0.497738"
       id="rect30"
       width="5"
       height="5"
       x="71"
       y="59" />
  </g>
</svg>
