<?xml version="1.0" encoding="UTF-8" standalone="no"?>
<!-- Created with Inkscape (http://www.inkscape.org/) -->

<svg
   width="120"
   height="120"
   viewBox="0 0 120 120"
   version="1.1"
   id="svg1"
   inkscape:version="1.3.2 (091e20e, 2023-11-25, custom)"
   sodipodi:docname="perk_shield.svg"
   xmlns:inkscape="http://www.inkscape.org/namespaces/inkscape"
   xmlns:sodipodi="http://sodipodi.sourceforge.net/DTD/sodipodi-0.dtd"
   xmlns="http://www.w3.org/2000/svg"
   xmlns:svg="http://www.w3.org/2000/svg">
  <sodipodi:namedview
     id="namedview1"
     pagecolor="#ffffff"
     bordercolor="#999999"
     borderopacity="1"
     inkscape:showpageshadow="2"
     inkscape:pageopacity="0"
     inkscape:pagecheckerboard="0"
     inkscape:deskcolor="#d1d1d1"
     inkscape:document-units="px"
     showgrid="true"
     inkscape:zoom="6.775"
     inkscape:cx="74.98155"
     inkscape:cy="59.704797"
     inkscape:window-width="1920"
     inkscape:window-height="1009"
     inkscape:window-x="1912"
     inkscape:window-y="-8"
     inkscape:window-maximized="1"
     inkscape:current-layer="layer1">
    <inkscape:grid
       id="grid1"
       units="px"
       originx="0"
       originy="0"
       spacingx="1"
       spacingy="1"
       empcolor="#0099e5"
       empopacity="0.30196078"
       color="#0099e5"
       opacity="0.14901961"
       empspacing="5"
       dotted="false"
       gridanglex="30"
       gridanglez="30"
       visible="true" />
  </sodipodi:namedview>
  <defs
     id="defs1" />
  <g
     inkscape:label="Livello 1"
     inkscape:groupmode="layer"
     id="layer1"
     transform="matrix(1.4285714,0,0,1.4285714,-24.999998,-31.428569)">
    <path
       d="m 34.999999,21.999999 0,84.000001 H 84 V 71 h -2.8 c -1.938998,0 -3.5,-1.561003 -3.5,-3.5 v -7 c 0,-1.938998 1.561002,-3.500001 3.5,-3.500001 H 84 v -35 c -16.333334,0 -34.217317,-3e-6 -49.000001,0 z m 7,3.5 H 77 c 1.938996,0 3.5,1.561004 3.5,3.5 v 17.5 c 0,1.938996 -1.561004,3.5 -3.5,3.5 H 41.999999 c -1.938995,0 -3.5,-1.561004 -3.5,-3.5 v -17.5 c 0,-1.938996 1.561005,-3.5 3.5,-3.5 z"
       style="fill:#1a1a1a;stroke-width:0.7"
       id="path5"
       sodipodi:nodetypes="ccccsssscccsssssssss" />
    <rect
       style="display:inline;fill:#0080bf;fill-opacity:0.698925;stroke:none;stroke-width:0.7"
       id="rect2"
       width="42"
       height="24.500002"
       x="38.5"
       y="25.499998"
       ry="3.5000007" />
    <rect
       style="display:inline;fill:#0080bf;fill-opacity:0.698925;stroke:none;stroke-width:0.7"
       id="rect3"
       width="14"
       height="10.5"
       x="42"
       y="29"
       ry="3.499999" />
  </g>
</svg>
